<mxfile host="app.diagrams.net" agent="Mozilla/5.0 (X11; Linux x86_64) AppleWebKit/537.36 (KHTML, like Gecko) Chrome/130.0.0.0 Safari/537.36" version="25.0.1">
  <diagram id="X3rtlFF3czIN0KlO5IqW" name="Page-1">
    <mxGraphModel dx="1434" dy="820" grid="1" gridSize="10" guides="1" tooltips="1" connect="1" arrows="1" fold="1" page="1" pageScale="1" pageWidth="850" pageHeight="1100" math="0" shadow="0">
      <root>
        <mxCell id="0" />
        <mxCell id="1" parent="0" />
        <mxCell id="-urvq6W4WKF4boVIWJy_-5" value="" style="group" vertex="1" connectable="0" parent="1">
          <mxGeometry x="190" y="270" width="80" height="80" as="geometry" />
        </mxCell>
        <mxCell id="-urvq6W4WKF4boVIWJy_-2" value="MULTILINE&lt;div&gt;LITERAL&lt;/div&gt;&lt;div&gt;INITIAL&lt;/div&gt;" style="ellipse;whiteSpace=wrap;html=1;aspect=fixed;" vertex="1" parent="-urvq6W4WKF4boVIWJy_-5">
          <mxGeometry width="80" height="80" as="geometry" />
        </mxCell>
        <mxCell id="-urvq6W4WKF4boVIWJy_-3" value="" style="ellipse;whiteSpace=wrap;html=1;aspect=fixed;fillColor=none;" vertex="1" parent="-urvq6W4WKF4boVIWJy_-5">
          <mxGeometry x="5" y="5" width="70" height="70" as="geometry" />
        </mxCell>
        <mxCell id="-urvq6W4WKF4boVIWJy_-6" value="" style="shape=flexArrow;endArrow=classic;html=1;rounded=0;" edge="1" parent="1">
          <mxGeometry width="50" height="50" relative="1" as="geometry">
            <mxPoint x="120" y="310" as="sourcePoint" />
            <mxPoint x="190" y="310" as="targetPoint" />
          </mxGeometry>
        </mxCell>
        <mxCell id="-urvq6W4WKF4boVIWJy_-8" value="ERROR" style="ellipse;whiteSpace=wrap;html=1;aspect=fixed;" vertex="1" parent="1">
          <mxGeometry x="400" y="460" width="80" height="80" as="geometry" />
        </mxCell>
        <mxCell id="-urvq6W4WKF4boVIWJy_-10" style="edgeStyle=none;rounded=0;orthogonalLoop=1;jettySize=auto;html=1;exitX=1;exitY=1;exitDx=0;exitDy=0;entryX=0;entryY=0;entryDx=0;entryDy=0;" edge="1" parent="1" source="-urvq6W4WKF4boVIWJy_-2" target="-urvq6W4WKF4boVIWJy_-8">
          <mxGeometry relative="1" as="geometry" />
        </mxCell>
        <mxCell id="-urvq6W4WKF4boVIWJy_-11" value="EOF" style="text;html=1;align=center;verticalAlign=middle;resizable=0;points=[];autosize=1;strokeColor=none;fillColor=none;" vertex="1" parent="1">
          <mxGeometry x="325" y="368" width="50" height="30" as="geometry" />
        </mxCell>
        <mxCell id="-urvq6W4WKF4boVIWJy_-15" value="" style="group" vertex="1" connectable="0" parent="1">
          <mxGeometry x="480" y="200" width="80" height="80" as="geometry" />
        </mxCell>
        <mxCell id="-urvq6W4WKF4boVIWJy_-13" value="NEWLINE" style="ellipse;whiteSpace=wrap;html=1;aspect=fixed;fillColor=default;" vertex="1" parent="-urvq6W4WKF4boVIWJy_-15">
          <mxGeometry width="80" height="80" as="geometry" />
        </mxCell>
        <mxCell id="-urvq6W4WKF4boVIWJy_-14" value="" style="ellipse;whiteSpace=wrap;html=1;aspect=fixed;fillColor=none;container=1;" vertex="1" parent="-urvq6W4WKF4boVIWJy_-15">
          <mxGeometry x="5" y="5" width="70" height="70" as="geometry" />
        </mxCell>
        <mxCell id="-urvq6W4WKF4boVIWJy_-19" style="edgeStyle=orthogonalEdgeStyle;curved=1;rounded=0;orthogonalLoop=1;jettySize=auto;html=1;exitX=0.5;exitY=0;exitDx=0;exitDy=0;entryX=1;entryY=0.375;entryDx=0;entryDy=0;entryPerimeter=0;" edge="1" parent="-urvq6W4WKF4boVIWJy_-15" source="-urvq6W4WKF4boVIWJy_-14" target="-urvq6W4WKF4boVIWJy_-13">
          <mxGeometry relative="1" as="geometry" />
        </mxCell>
        <mxCell id="-urvq6W4WKF4boVIWJy_-16" style="edgeStyle=none;rounded=0;orthogonalLoop=1;jettySize=auto;html=1;exitX=1;exitY=0;exitDx=0;exitDy=0;entryX=0;entryY=0.5;entryDx=0;entryDy=0;" edge="1" parent="1" source="-urvq6W4WKF4boVIWJy_-2" target="-urvq6W4WKF4boVIWJy_-13">
          <mxGeometry relative="1" as="geometry" />
        </mxCell>
        <mxCell id="-urvq6W4WKF4boVIWJy_-17" value="&#39;\n&#39;" style="text;html=1;align=center;verticalAlign=middle;resizable=0;points=[];autosize=1;strokeColor=none;fillColor=none;" vertex="1" parent="1">
          <mxGeometry x="360" y="270" width="40" height="30" as="geometry" />
        </mxCell>
        <mxCell id="-urvq6W4WKF4boVIWJy_-20" value="ELSE" style="text;html=1;align=center;verticalAlign=middle;resizable=0;points=[];autosize=1;strokeColor=none;fillColor=none;" vertex="1" parent="1">
          <mxGeometry x="550" y="150" width="50" height="30" as="geometry" />
        </mxCell>
        <mxCell id="-urvq6W4WKF4boVIWJy_-22" value="&#39;\&#39;" style="text;html=1;align=center;verticalAlign=middle;resizable=0;points=[];autosize=1;strokeColor=none;fillColor=none;" vertex="1" parent="1">
          <mxGeometry x="450" y="130" width="30" height="30" as="geometry" />
        </mxCell>
        <mxCell id="-urvq6W4WKF4boVIWJy_-25" value="" style="group" vertex="1" connectable="0" parent="1">
          <mxGeometry x="325" y="80" width="80" height="80" as="geometry" />
        </mxCell>
        <mxCell id="-urvq6W4WKF4boVIWJy_-23" value="POTENTIAL&lt;div&gt;CONTINUE&lt;/div&gt;" style="ellipse;whiteSpace=wrap;html=1;aspect=fixed;" vertex="1" parent="-urvq6W4WKF4boVIWJy_-25">
          <mxGeometry width="80" height="80" as="geometry" />
        </mxCell>
        <mxCell id="-urvq6W4WKF4boVIWJy_-24" value="" style="ellipse;whiteSpace=wrap;html=1;aspect=fixed;fillColor=none;" vertex="1" parent="-urvq6W4WKF4boVIWJy_-25">
          <mxGeometry x="5" y="5" width="70" height="70" as="geometry" />
        </mxCell>
        <mxCell id="-urvq6W4WKF4boVIWJy_-26" style="edgeStyle=none;rounded=0;orthogonalLoop=1;jettySize=auto;html=1;exitX=0;exitY=0;exitDx=0;exitDy=0;entryX=0.988;entryY=0.588;entryDx=0;entryDy=0;entryPerimeter=0;" edge="1" parent="1" source="-urvq6W4WKF4boVIWJy_-14" target="-urvq6W4WKF4boVIWJy_-23">
          <mxGeometry relative="1" as="geometry" />
        </mxCell>
        <mxCell id="-urvq6W4WKF4boVIWJy_-27" style="edgeStyle=none;rounded=0;orthogonalLoop=1;jettySize=auto;html=1;exitX=0;exitY=1;exitDx=0;exitDy=0;entryX=0.5;entryY=0;entryDx=0;entryDy=0;" edge="1" parent="1" source="-urvq6W4WKF4boVIWJy_-23" target="-urvq6W4WKF4boVIWJy_-2">
          <mxGeometry relative="1" as="geometry" />
        </mxCell>
        <mxCell id="-urvq6W4WKF4boVIWJy_-28" value="&#39;\&#39;" style="text;html=1;align=center;verticalAlign=middle;resizable=0;points=[];autosize=1;strokeColor=none;fillColor=none;" vertex="1" parent="1">
          <mxGeometry x="255" y="178" width="30" height="30" as="geometry" />
        </mxCell>
      </root>
    </mxGraphModel>
  </diagram>
</mxfile>
